<svg xmlns="http://www.w3.org/2000/svg" xmlns:xlink="http://www.w3.org/1999/xlink" width="1000" zoomAndPan="magnify" viewBox="0 0 750 374.999991" height="500" preserveAspectRatio="xMidYMid meet" version="1.0"><defs><filter x="0%" y="0%" width="100%" height="100%" id="76b4ef0355"><feColorMatrix values="0 0 0 0 1 0 0 0 0 1 0 0 0 0 1 0 0 0 1 0" color-interpolation-filters="sRGB"/></filter><g/><clipPath id="e79d8ec2f8"><path d="M 0 0 L 597.460938 0 L 597.460938 375 L 0 375 Z M 0 0 " clip-rule="nonzero"/></clipPath><linearGradient x1="-64.400784" gradientTransform="matrix(0.750323, 0, 0, 0.749979, 48.321421, 82.502954)" y1="140" x2="731.873047" gradientUnits="userSpaceOnUse" y2="140" id="a9bf798074"><stop stop-opacity="1" stop-color="rgb(97.24884%, 3.529358%, 21.958923%)" offset="0"/><stop stop-opacity="1" stop-color="rgb(97.24884%, 3.529358%, 21.958923%)" offset="0.25"/><stop stop-opacity="1" stop-color="rgb(97.24884%, 3.529358%, 21.958923%)" offset="0.3125"/><stop stop-opacity="1" stop-color="rgb(97.24884%, 3.529358%, 21.958923%)" offset="0.34375"/><stop stop-opacity="1" stop-color="rgb(97.24884%, 3.529358%, 21.958923%)" offset="0.351562"/><stop stop-opacity="1" stop-color="rgb(97.108459%, 4.28009%, 22.53418%)" offset="0.355469"/><stop stop-opacity="1" stop-color="rgb(96.968079%, 5.030823%, 23.110962%)" offset="0.359375"/><stop stop-opacity="1" stop-color="rgb(96.5271%, 7.391357%, 24.919128%)" offset="0.363281"/><stop stop-opacity="1" stop-color="rgb(96.086121%, 9.751892%, 26.728821%)" offset="0.367188"/><stop stop-opacity="1" stop-color="rgb(95.645142%, 12.112427%, 28.538513%)" offset="0.371094"/><stop stop-opacity="1" stop-color="rgb(95.204163%, 14.472961%, 30.348206%)" offset="0.375"/><stop stop-opacity="1" stop-color="rgb(94.763184%, 16.833496%, 32.156372%)" offset="0.378906"/><stop stop-opacity="1" stop-color="rgb(94.322205%, 19.194031%, 33.966064%)" offset="0.382812"/><stop stop-opacity="1" stop-color="rgb(93.881226%, 21.554565%, 35.774231%)" offset="0.386719"/><stop stop-opacity="1" stop-color="rgb(93.440247%, 23.916626%, 37.583923%)" offset="0.390625"/><stop stop-opacity="1" stop-color="rgb(92.999268%, 26.277161%, 39.393616%)" offset="0.394531"/><stop stop-opacity="1" stop-color="rgb(92.558289%, 28.637695%, 41.203308%)" offset="0.398438"/><stop stop-opacity="1" stop-color="rgb(92.11731%, 30.99823%, 43.011475%)" offset="0.402344"/><stop stop-opacity="1" stop-color="rgb(91.676331%, 33.358765%, 44.821167%)" offset="0.40625"/><stop stop-opacity="1" stop-color="rgb(91.235352%, 35.719299%, 46.630859%)" offset="0.410156"/><stop stop-opacity="1" stop-color="rgb(90.794373%, 38.079834%, 48.440552%)" offset="0.414062"/><stop stop-opacity="1" stop-color="rgb(90.351868%, 40.440369%, 50.248718%)" offset="0.417969"/><stop stop-opacity="1" stop-color="rgb(89.910889%, 42.800903%, 52.058411%)" offset="0.421875"/><stop stop-opacity="1" stop-color="rgb(89.915466%, 45.465088%, 54.199219%)" offset="0.425781"/><stop stop-opacity="1" stop-color="rgb(89.92157%, 48.129272%, 56.341553%)" offset="0.429688"/><stop stop-opacity="1" stop-color="rgb(90.516663%, 51.196289%, 58.921814%)" offset="0.433594"/><stop stop-opacity="1" stop-color="rgb(91.113281%, 54.263306%, 61.503601%)" offset="0.4375"/><stop stop-opacity="1" stop-color="rgb(91.708374%, 57.328796%, 64.083862%)" offset="0.441406"/><stop stop-opacity="1" stop-color="rgb(92.304993%, 60.395813%, 66.665649%)" offset="0.445313"/><stop stop-opacity="1" stop-color="rgb(92.900085%, 63.46283%, 69.245911%)" offset="0.449219"/><stop stop-opacity="1" stop-color="rgb(93.496704%, 66.529846%, 71.827698%)" offset="0.453125"/><stop stop-opacity="1" stop-color="rgb(94.091797%, 69.595337%, 74.407959%)" offset="0.457031"/><stop stop-opacity="1" stop-color="rgb(94.688416%, 72.662354%, 76.989746%)" offset="0.460938"/><stop stop-opacity="1" stop-color="rgb(95.283508%, 75.72937%, 79.571533%)" offset="0.464844"/><stop stop-opacity="1" stop-color="rgb(95.880127%, 78.796387%, 82.15332%)" offset="0.46875"/><stop stop-opacity="1" stop-color="rgb(96.47522%, 81.861877%, 84.733582%)" offset="0.472656"/><stop stop-opacity="1" stop-color="rgb(97.071838%, 84.928894%, 87.315369%)" offset="0.476562"/><stop stop-opacity="1" stop-color="rgb(97.666931%, 87.995911%, 89.89563%)" offset="0.480469"/><stop stop-opacity="1" stop-color="rgb(98.26355%, 91.062927%, 92.477417%)" offset="0.484375"/><stop stop-opacity="1" stop-color="rgb(98.858643%, 94.128418%, 95.057678%)" offset="0.488281"/><stop stop-opacity="1" stop-color="rgb(99.455261%, 97.195435%, 97.639465%)" offset="0.492188"/><stop stop-opacity="1" stop-color="rgb(99.726868%, 98.597717%, 98.81897%)" offset="0.496094"/><stop stop-opacity="1" stop-color="rgb(100%, 100%, 100%)" offset="0.5"/><stop stop-opacity="1" stop-color="rgb(100%, 100%, 100%)" offset="1"/></linearGradient><clipPath id="4cbe74c595"><rect x="0" width="750" y="0" height="375"/></clipPath><clipPath id="eae3d87708"><rect x="0" width="750" y="0" height="375"/></clipPath><clipPath id="5bf70a6677"><rect x="0" width="750" y="0" height="375"/></clipPath><mask id="a8f9b6d71f"><g filter="url(#76b4ef0355)"><g transform="matrix(1, 0, 0, 1, 0, 0)"><g clip-path="url(#5bf70a6677)"><g transform="matrix(1, 0, 0, 1, 0, 0)"><g clip-path="url(#eae3d87708)"><g fill="#000000" fill-opacity="1"><g transform="translate(213.298823, 245.624984)"><g><path d="M 67.125 0 L -3.609375 0 L -0.4375 -15.65625 L 34.625 -46.828125 C 43.445312 -54.617188 49.535156 -60.851562 52.890625 -65.53125 C 56.253906 -70.21875 57.9375 -74.617188 57.9375 -78.734375 C 57.9375 -82.410156 56.929688 -85.21875 54.921875 -87.15625 C 52.910156 -89.09375 50.210938 -90.0625 46.828125 -90.0625 C 43.597656 -90.0625 40.28125 -89.238281 36.875 -87.59375 C 33.46875 -85.945312 29.265625 -83.046875 24.265625 -78.890625 L 13.53125 -93.8125 C 20 -99.300781 26.171875 -103.207031 32.046875 -105.53125 C 37.929688 -107.863281 44.0625 -109.03125 50.4375 -109.03125 C 59.75 -109.03125 67.125 -106.625 72.5625 -101.8125 C 78 -97.007812 80.71875 -90.664062 80.71875 -82.78125 C 80.71875 -77.53125 79.710938 -72.601562 77.703125 -68 C 75.691406 -63.394531 72.6875 -58.785156 68.6875 -54.171875 C 64.695312 -49.566406 58.171875 -43.566406 49.109375 -36.171875 L 29.328125 -19.84375 L 29.328125 -19.109375 L 71.09375 -19.109375 Z M 67.125 0 "/></g></g></g></g></g></g></g></g></mask><clipPath id="82c77e1bfd"><path d="M 0 0 L 597.460938 0 L 597.460938 375 L 0 375 Z M 0 0 " clip-rule="nonzero"/></clipPath><clipPath id="d46d68e012"><rect x="0" width="750" y="0" height="375"/></clipPath><clipPath id="0bbd7a4b3e"><rect x="0" width="750" y="0" height="375"/></clipPath></defs><g fill="#f80938" fill-opacity="1"><g transform="translate(48.462896, 245.624984)"><g><path d="M 46.09375 -63.953125 L 73.59375 -107.484375 L 98.734375 -107.484375 L 53.296875 -41.09375 L 44.546875 0 L 22.28125 0 L 31.03125 -41.09375 L 13.671875 -107.484375 L 36.609375 -107.484375 Z M 46.09375 -63.953125 "/></g></g><g transform="translate(133.374847, 245.624984)"><g><path d="M 41.984375 0 L 19.5625 0 L 38.234375 -88.515625 L 12.34375 -88.515625 L 16.390625 -107.484375 L 90.640625 -107.484375 L 86.609375 -88.515625 L 60.65625 -88.515625 Z M 41.984375 0 "/></g></g></g><g fill="#ffffff" fill-opacity="1"><g transform="translate(296.232415, 245.624984)"><g><path d="M 61.609375 -27.125 L 102.109375 -107.484375 L 133.21875 -107.484375 L 110.5 0 L 89.90625 0 L 100.578125 -50.875 C 103.171875 -62.976562 105.742188 -73.785156 108.296875 -83.296875 L 107.921875 -83.296875 L 66.09375 0 L 45.4375 0 L 40.953125 -83.296875 L 40.65625 -83.296875 C 40.113281 -78.984375 39.179688 -73.320312 37.859375 -66.3125 C 36.535156 -59.300781 31.953125 -37.195312 24.109375 0 L 3.890625 0 L 26.609375 -107.484375 L 56.3125 -107.484375 L 61.3125 -27.125 Z M 61.609375 -27.125 "/></g></g><g transform="translate(428.709762, 245.624984)"><g><path d="M 38.375 -56.90625 L 42.5 -56.90625 C 49.457031 -56.90625 54.929688 -58.59375 58.921875 -61.96875 C 62.921875 -65.351562 64.921875 -69.890625 64.921875 -75.578125 C 64.921875 -84.398438 60.140625 -88.8125 50.578125 -88.8125 L 45.140625 -88.8125 Z M 87.484375 -76.15625 C 87.484375 -64.351562 83.328125 -55.082031 75.015625 -48.34375 C 66.710938 -41.601562 55.257812 -38.234375 40.65625 -38.234375 L 34.328125 -38.234375 L 26.3125 0 L 3.890625 0 L 26.609375 -107.484375 L 51.46875 -107.484375 C 63.320312 -107.484375 72.285156 -104.875 78.359375 -99.65625 C 84.441406 -94.4375 87.484375 -86.601562 87.484375 -76.15625 Z M 87.484375 -76.15625 "/></g></g><g transform="translate(516.04777, 245.624984)"><g><path d="M 63.953125 0 L 3.890625 0 L 26.609375 -107.484375 L 86.75 -107.484375 L 82.78125 -88.8125 L 45.140625 -88.8125 L 40.21875 -65.203125 L 75.28125 -65.203125 L 71.234375 -46.53125 L 36.171875 -46.53125 L 30.28125 -18.828125 L 67.921875 -18.828125 Z M 63.953125 0 "/></g></g><g transform="translate(597.651463, 245.624984)"><g><path d="M 55.4375 -60.359375 L 96.828125 -60.359375 L 84.90625 -4.34375 C 78.34375 -2.082031 72.253906 -0.550781 66.640625 0.25 C 61.023438 1.0625 55.082031 1.46875 48.8125 1.46875 C 36.125 1.46875 26.320312 -2.128906 19.40625 -9.328125 C 12.5 -16.535156 9.046875 -26.878906 9.046875 -40.359375 C 9.046875 -53.492188 11.664062 -65.363281 16.90625 -75.96875 C 22.15625 -86.582031 29.53125 -94.769531 39.03125 -100.53125 C 48.539062 -106.289062 59.519531 -109.171875 71.96875 -109.171875 C 82.65625 -109.171875 92.703125 -106.742188 102.109375 -101.890625 L 93.65625 -83.4375 C 90.03125 -85.394531 86.40625 -86.960938 82.78125 -88.140625 C 79.15625 -89.316406 75.207031 -89.90625 70.9375 -89.90625 C 63.445312 -89.90625 56.75 -87.867188 50.84375 -83.796875 C 44.9375 -79.734375 40.300781 -73.941406 36.9375 -66.421875 C 33.582031 -58.898438 31.90625 -50.800781 31.90625 -42.125 C 31.90625 -33.695312 33.679688 -27.507812 37.234375 -23.5625 C 40.785156 -19.613281 46.238281 -17.640625 53.59375 -17.640625 C 57.320312 -17.640625 61.488281 -18.226562 66.09375 -19.40625 L 70.9375 -41.390625 L 51.3125 -41.390625 Z M 55.4375 -60.359375 "/></g></g></g><g transform="matrix(1, 0, 0, 1, 0, 0)"><g clip-path="url(#0bbd7a4b3e)"><g mask="url(#a8f9b6d71f)"><g transform="matrix(1, 0, 0, 1, 0, 0)"><g clip-path="url(#d46d68e012)"><g clip-path="url(#82c77e1bfd)"><path fill="url(#a9bf798074)" d="M 0 0 L 0 375 L 597.460938 375 L 597.460938 0 Z M 0 0 " fill-rule="nonzero"/></g></g></g></g></g></g><g fill="#ffffff" fill-opacity="1"><g transform="translate(520.441391, 282.31819)"><g><path d="M 16.453125 -6.796875 L 7.203125 -6.796875 L 3.84375 0 L -2.40625 0 L 12.5625 -28.671875 L 19.84375 -28.671875 L 22.71875 0 L 16.921875 0 Z M 16.15625 -11.875 L 15.640625 -18.71875 C 15.515625 -20.414062 15.453125 -22.0625 15.453125 -23.65625 L 15.453125 -24.359375 C 14.878906 -22.796875 14.171875 -21.140625 13.328125 -19.390625 L 9.65625 -11.875 Z M 16.15625 -11.875 "/></g></g></g><g fill="#ffffff" fill-opacity="1"><g transform="translate(545.556124, 282.31819)"><g><path d="M 19.078125 0 L 13.203125 0 L 15.875 -12.75 C 16.082031 -13.632812 16.1875 -14.410156 16.1875 -15.078125 C 16.1875 -16.679688 15.484375 -17.484375 14.078125 -17.484375 C 12.878906 -17.484375 11.789062 -16.738281 10.8125 -15.25 C 9.84375 -13.769531 9.078125 -11.703125 8.515625 -9.046875 L 6.609375 0 L 0.71875 0 L 5.359375 -21.84375 L 9.84375 -21.84375 L 9.4375 -17.796875 L 9.546875 -17.796875 C 11.453125 -20.765625 13.765625 -22.25 16.484375 -22.25 C 18.285156 -22.25 19.675781 -21.703125 20.65625 -20.609375 C 21.632812 -19.523438 22.125 -17.972656 22.125 -15.953125 C 22.125 -15.003906 21.976562 -13.832031 21.6875 -12.4375 Z M 19.078125 0 "/></g></g></g><g fill="#ffffff" fill-opacity="1"><g transform="translate(569.713925, 282.31819)"><g><path d="M 7.9375 0.390625 C 6.019531 0.390625 4.507812 -0.304688 3.40625 -1.703125 C 2.3125 -3.097656 1.765625 -5.050781 1.765625 -7.5625 C 1.765625 -10.113281 2.226562 -12.550781 3.15625 -14.875 C 4.082031 -17.195312 5.304688 -19.003906 6.828125 -20.296875 C 8.359375 -21.597656 10.039062 -22.25 11.875 -22.25 C 12.945312 -22.25 13.867188 -22.003906 14.640625 -21.515625 C 15.410156 -21.035156 16.144531 -20.210938 16.84375 -19.046875 L 17 -19.046875 L 17.03125 -19.59375 C 17.113281 -21.019531 17.273438 -22.289062 17.515625 -23.40625 L 19 -30.390625 L 24.890625 -30.390625 L 18.4375 0 L 13.96875 0 L 14.234375 -2.828125 L 14.15625 -2.828125 C 13.238281 -1.703125 12.273438 -0.882812 11.265625 -0.375 C 10.253906 0.132812 9.144531 0.390625 7.9375 0.390625 Z M 10.390625 -4.359375 C 11.253906 -4.359375 12.09375 -4.800781 12.90625 -5.6875 C 13.71875 -6.582031 14.367188 -7.769531 14.859375 -9.25 C 15.359375 -10.738281 15.609375 -12.335938 15.609375 -14.046875 C 15.609375 -15.085938 15.363281 -15.921875 14.875 -16.546875 C 14.382812 -17.171875 13.71875 -17.484375 12.875 -17.484375 C 11.988281 -17.484375 11.144531 -17.015625 10.34375 -16.078125 C 9.539062 -15.140625 8.898438 -13.898438 8.421875 -12.359375 C 7.953125 -10.828125 7.71875 -9.304688 7.71875 -7.796875 C 7.71875 -5.503906 8.609375 -4.359375 10.390625 -4.359375 Z M 10.390625 -4.359375 "/></g></g></g><g fill="#ffffff" fill-opacity="1"><g transform="translate(593.481139, 282.31819)"><g/></g></g><g fill="#ffffff" fill-opacity="1"><g transform="translate(603.870748, 282.31819)"><g><path d="M 7 0 L 1.03125 0 L 7.078125 -28.5625 L 22.96875 -28.5625 L 21.921875 -23.59375 L 12 -23.59375 L 10.453125 -16.234375 L 19.6875 -16.234375 L 18.59375 -11.296875 L 9.359375 -11.296875 Z M 7 0 "/></g></g></g><g fill="#ffffff" fill-opacity="1"><g transform="translate(625.099148, 282.31819)"><g><path d="M 1.03125 0 L 7.078125 -28.5625 L 13.046875 -28.5625 L 8.046875 -5 L 18.046875 -5 L 17 0 Z M 1.03125 0 "/></g></g></g><g fill="#ffffff" fill-opacity="1"><g transform="translate(645.819785, 282.31819)"><g><path d="M 16.453125 -6.796875 L 7.203125 -6.796875 L 3.84375 0 L -2.40625 0 L 12.5625 -28.671875 L 19.84375 -28.671875 L 22.71875 0 L 16.921875 0 Z M 16.15625 -11.875 L 15.640625 -18.71875 C 15.515625 -20.414062 15.453125 -22.0625 15.453125 -23.65625 L 15.453125 -24.359375 C 14.878906 -22.796875 14.171875 -21.140625 13.328125 -19.390625 L 9.65625 -11.875 Z M 16.15625 -11.875 "/></g></g></g><g fill="#ffffff" fill-opacity="1"><g transform="translate(670.934518, 282.31819)"><g><path d="M 17.671875 -23.96875 C 15.953125 -23.96875 14.40625 -23.4375 13.03125 -22.375 C 11.664062 -21.320312 10.566406 -19.769531 9.734375 -17.71875 C 8.898438 -15.675781 8.484375 -13.472656 8.484375 -11.109375 C 8.484375 -8.941406 8.925781 -7.328125 9.8125 -6.265625 C 10.707031 -5.210938 12.128906 -4.6875 14.078125 -4.6875 C 15.984375 -4.6875 18.1875 -5.1875 20.6875 -6.1875 L 20.6875 -1.109375 C 18.09375 -0.109375 15.488281 0.390625 12.875 0.390625 C 9.5625 0.390625 6.988281 -0.582031 5.15625 -2.53125 C 3.320312 -4.476562 2.40625 -7.234375 2.40625 -10.796875 C 2.40625 -14.210938 3.082031 -17.351562 4.4375 -20.21875 C 5.789062 -23.09375 7.597656 -25.273438 9.859375 -26.765625 C 12.128906 -28.253906 14.734375 -29 17.671875 -29 C 19.304688 -29 20.753906 -28.851562 22.015625 -28.5625 C 23.273438 -28.269531 24.628906 -27.734375 26.078125 -26.953125 L 23.765625 -22.078125 C 22.390625 -22.835938 21.25 -23.34375 20.34375 -23.59375 C 19.445312 -23.84375 18.554688 -23.96875 17.671875 -23.96875 Z M 17.671875 -23.96875 "/></g></g></g></svg>